<?xml version="1.0" ?><svg id="Layer_1" style="enable-background:new 0 0 512 512;" version="1.1" viewBox="0 0 512 512" xml:space="preserve" xmlns="http://www.w3.org/2000/svg" xmlns:xlink="http://www.w3.org/1999/xlink"><style type="text/css">
	.st0{fill:#2E2E2E;}
	.st1{fill:#5EA4D3;}
</style><g><g id="XMLID_11_"><polygon class="st0" id="XMLID_15_" points="340.1,6 340.1,112.8 448.6,112.8   "/><path class="st1" d="M448.4,124.8H328.3c-0.1,0-0.2-0.1-0.2-0.2V6.5c0-0.1-0.1-0.2-0.2-0.2H81.6    c-0.1,0-0.2,0.1-0.2,0.2v270.2h229.8l58.9,159H81.4v70c0,0.1,0.1,0.2,0.2,0.2h366.2c0.1,0,0.2-0.1,0.2-0.2l0.6-380.7    C448.6,124.9,448.5,124.8,448.4,124.8z" id="XMLID_14_"/></g><g><path class="st0" d="M238.3,333h-15.1v24.7h15.1c4.3,0,7.6-1.2,9.8-3.5c2.2-2.3,3.3-5.2,3.3-8.8s-1.1-6.5-3.3-8.9    C245.8,334.2,242.6,333,238.3,333z"/><path class="st0" d="M302.9,288.8H63.4v135h289.5L302.9,288.8z M165.9,393.7h-49.3v-7.3l34.2-53.3h-33.9v-9.4h47.7v7l-34.3,53.7    h35.5V393.7z M192.8,393.7h-11.7v-70h11.7V393.7z M256.4,361.2c-4.4,4-10.4,5.9-18.1,5.9h-15.1v26.5h-11.7v-70h26.8    c7.7,0,13.8,2,18.1,6c4.4,4,6.6,9.2,6.6,15.7C263,352,260.8,357.2,256.4,361.2z"/></g></g></svg>