<?xml version="1.0" ?><svg id="Layer_1" style="enable-background:new 0 0 512 512;" version="1.1" viewBox="0 0 512 512" xml:space="preserve" xmlns="http://www.w3.org/2000/svg" xmlns:xlink="http://www.w3.org/1999/xlink"><style type="text/css">
	.st0{fill:#2E2E2E;}
	.st1{fill:#5EA4D3;}
</style><g><g id="XMLID_357_"><polygon class="st0" id="XMLID_360_" points="340.1,6 340.1,112.8 448.6,112.8   "/><path class="st1" d="M448.4,124.8H328.3c-0.1,0-0.2-0.1-0.2-0.2V6.5c0-0.1-0.1-0.2-0.2-0.2H81.6    c-0.1,0-0.2,0.1-0.2,0.2v270.2h229.8l58.9,159H81.4v70c0,0.1,0.1,0.2,0.2,0.2h366.2c0.1,0,0.2-0.1,0.2-0.2l0.6-380.7    C448.6,124.9,448.5,124.8,448.4,124.8z" id="XMLID_359_"/></g><g><polygon class="st0" points="187.2,339.9 178,367.5 196.4,367.5 187.4,339.9   "/><path class="st0" d="M252.7,332.9h-12.4v22.2h11.8c4.7,0,8.1-0.9,10.2-2.7c2.1-1.8,3.2-4.5,3.2-8.2c0-3.5-1.1-6.3-3.2-8.3    C260.3,333.9,257,332.9,252.7,332.9z"/><path class="st0" d="M302.9,288.8H63.4v135h289.5L302.9,288.8z M149.6,393.6h-12c-1.3-1.1-2.1-2.7-2.5-5c-0.4-2.2-0.5-4.5-0.5-6.7    v-5.6c0-3.6-1-6.4-3.1-8.6c-2.1-2.1-4.9-3.2-8.4-3.2h-13.8v29H97.6v-70h24.1c7.8,0,13.8,1.8,18.1,5.3c4.3,3.5,6.4,8.6,6.4,15.1    c0,3.6-0.9,6.7-2.8,9.4c-1.9,2.6-4.6,4.7-8.2,6.3c3.9,1.3,6.8,3.3,8.5,6.1c1.7,2.8,2.6,6.3,2.6,10.5v5.8c0,2.1,0.3,4.1,0.8,6    c0.5,2,1.4,3.4,2.5,4.5V393.6z M204.9,393.6l-5.3-16.3h-24.8l-5.4,16.3h-12.1l24.4-70h11.1l24.1,70H204.9z M280.6,393.6h-12    c-1.3-1.1-2.1-2.7-2.5-5c-0.4-2.2-0.5-4.5-0.5-6.7v-5.6c0-3.6-1-6.4-3.1-8.6c-2.1-2.1-4.9-3.2-8.4-3.2h-13.8v29h-11.7v-70h24.1    c7.8,0,13.8,1.8,18.1,5.3c4.3,3.5,6.4,8.6,6.4,15.1c0,3.6-0.9,6.7-2.8,9.4c-1.9,2.6-4.6,4.7-8.2,6.3c3.9,1.3,6.8,3.3,8.5,6.1    c1.7,2.8,2.6,6.3,2.6,10.5v5.8c0,2.1,0.3,4.1,0.8,6c0.5,2,1.4,3.4,2.5,4.5V393.6z"/><path class="st0" d="M121.7,332.9h-12.4v22.2H121c4.7,0,8.1-0.9,10.2-2.7c2.1-1.8,3.2-4.5,3.2-8.2c0-3.5-1.1-6.3-3.2-8.3    C129.2,333.9,126,332.9,121.7,332.9z"/></g></g></svg>