<?xml version="1.0" ?><svg id="Layer_1" style="enable-background:new 0 0 512 512;" version="1.1" viewBox="0 0 512 512" xml:space="preserve" xmlns="http://www.w3.org/2000/svg" xmlns:xlink="http://www.w3.org/1999/xlink"><style type="text/css">
	.st0{fill:#2E2E2E;}
	.st1{fill:#5EA4D3;}
</style><g><g id="XMLID_345_"><polygon class="st0" id="XMLID_348_" points="340.1,6 340.1,112.8 448.6,112.8   "/><path class="st1" d="M448.4,124.8H328.3c-0.1,0-0.2-0.1-0.2-0.2V6.5c0-0.1-0.1-0.2-0.2-0.2H81.6    c-0.1,0-0.2,0.1-0.2,0.2v270.2h229.8l58.9,159H81.4v70c0,0.1,0.1,0.2,0.2,0.2h366.2c0.1,0,0.2-0.1,0.2-0.2l0.6-380.7    C448.6,124.9,448.5,124.8,448.4,124.8z" id="XMLID_347_"/></g><g><path class="st0" d="M302.9,288.8H63.4v135h289.5L302.9,288.8z M137.1,389.4l-5.3-16.1h-24.5l-5.3,16.1H90.2l24.1-69h10.9l23.8,69    H137.1z M212.4,365.9c0,7.7-2.5,13.7-7.6,18c-5,4.3-11.5,6.5-19.5,6.5c-7.8,0-14.2-2.2-19.1-6.5c-4.9-4.3-7.4-10.4-7.4-18v-45.5    h11.5v45.5c0,4.9,1.4,8.7,4.1,11.4c2.7,2.7,6.4,4,10.9,4c4.7,0,8.4-1.3,11.3-4c2.8-2.7,4.3-6.5,4.3-11.4v-45.5h11.5V365.9z     M276.9,329.7h-21.3v59.8h-11.5v-59.8h-21v-9.2h53.8V329.7z"/><polygon class="st0" points="119.6,336.5 110.6,363.7 128.8,363.7 119.9,336.5   "/></g></g></svg>