<?xml version="1.0" ?><svg id="Layer_1" style="enable-background:new 0 0 512 512;" version="1.1" viewBox="0 0 512 512" xml:space="preserve" xmlns="http://www.w3.org/2000/svg" xmlns:xlink="http://www.w3.org/1999/xlink"><style type="text/css">
	.st0{fill:#2E2E2E;}
	.st1{fill:#5EA4D3;}
</style><g><g id="XMLID_221_"><polygon class="st0" id="XMLID_224_" points="340.1,6 340.1,112.8 448.6,112.8   "/><path class="st1" d="M448.4,124.8H328.3c-0.1,0-0.2-0.1-0.2-0.2V6.5c0-0.1-0.1-0.2-0.2-0.2H81.6    c-0.1,0-0.2,0.1-0.2,0.2v270.2h229.8l58.9,159H81.4v70c0,0.1,0.1,0.2,0.2,0.2h366.2c0.1,0,0.2-0.1,0.2-0.2l0.6-380.7    C448.6,124.9,448.5,124.8,448.4,124.8z" id="XMLID_223_"/></g><g><path class="st0" d="M250.7,336.7h-11.1v49.9h11.1c5.5,0,9.8-1.8,13-5.5c3.2-3.7,4.8-8.4,4.8-14.2v-10.4c0-5.7-1.6-10.4-4.8-14.1    C260.5,338.6,256.2,336.7,250.7,336.7z"/><path class="st0" d="M302.9,288.8H63.4v135h289.5L302.9,288.8z M146.4,364.1c-4.3,3.8-10.1,5.8-17.6,5.8h-14.7v25.8h-11.4v-68    h26.1c7.5,0,13.4,1.9,17.6,5.8c4.3,3.9,6.4,9,6.4,15.3C152.8,355.1,150.7,360.2,146.4,364.1z M207.1,391.6c-4.4,3.4-10.2,5-17.4,5    c-6.9,0-12.9-1.8-18.1-5.5c-5.1-3.7-7.6-8.9-7.5-15.6l0.1-0.3h10.9c0,4.1,1.4,7.2,4.2,9.2c2.8,2.1,6.3,3.1,10.3,3.1    c4,0,7.1-0.8,9.4-2.5c2.2-1.7,3.3-4,3.3-6.9c0-2.8-1-5.2-3-7c-2-1.8-5.6-3.4-10.7-4.9c-7.3-2-13-4.7-16.9-8c-4-3.3-6-7.6-6-12.9    c0-5.5,2.2-10,6.5-13.6c4.4-3.6,10-5.3,16.8-5.3c7.4,0,13.2,2,17.6,5.9c4.4,3.9,6.5,8.8,6.4,14.6l-0.1,0.3h-10.9    c0-3.6-1.2-6.4-3.6-8.6c-2.4-2.1-5.6-3.2-9.5-3.2c-3.8,0-6.8,0.9-8.9,2.7c-2.1,1.8-3.1,4.1-3.1,7c0,2.6,1.1,4.8,3.4,6.5    c2.3,1.7,6,3.3,11.3,4.8c7.1,2,12.6,4.7,16.3,8.2c3.7,3.4,5.6,7.8,5.6,13.2C213.7,383.7,211.5,388.2,207.1,391.6z M279.9,366.8    c0,8.5-2.7,15.4-8.1,20.8c-5.4,5.4-12.4,8-21.1,8h-22.5v-68h22.5c8.6,0,15.6,2.7,21.1,8.1c5.4,5.4,8.1,12.3,8.1,20.8V366.8z"/><path class="st0" d="M128.8,336.7h-14.7v24h14.7c4.2,0,7.4-1.1,9.5-3.4c2.1-2.2,3.2-5.1,3.2-8.6s-1.1-6.3-3.2-8.6    C136.2,337.9,133,336.7,128.8,336.7z"/></g></g></svg>