<?xml version="1.0" ?><svg id="Layer_1" style="enable-background:new 0 0 512 512;" version="1.1" viewBox="0 0 512 512" xml:space="preserve" xmlns="http://www.w3.org/2000/svg" xmlns:xlink="http://www.w3.org/1999/xlink"><style type="text/css">
	.st0{fill:#2E2E2E;}
	.st1{fill:#5EA4D3;}
</style><g><g id="XMLID_233_"><polygon class="st0" id="XMLID_236_" points="340.1,6 340.1,112.8 448.6,112.8   "/><path class="st1" d="M448.4,124.8H328.3c-0.1,0-0.2-0.1-0.2-0.2V6.5c0-0.1-0.1-0.2-0.2-0.2H81.6    c-0.1,0-0.2,0.1-0.2,0.2v270.2h229.8l58.9,159H81.4v70c0,0.1,0.1,0.2,0.2,0.2h366.2c0.1,0,0.2-0.1,0.2-0.2l0.6-380.7    C448.6,124.9,448.5,124.8,448.4,124.8z" id="XMLID_235_"/></g><path class="st0" d="M302.9,288.8H63.4v135h289.5L302.9,288.8z M163.4,386.4c-1.9,2.6-4.9,5-8.9,7.1c-4.1,2.1-9.4,3.1-15.9,3.1   c-8,0-14.6-2.6-19.8-7.8c-5.2-5.2-7.8-11.9-7.8-20.1v-14.2c0-8.2,2.5-14.9,7.5-20.1c5-5.2,11.5-7.8,19.3-7.8c7.9,0,14.1,2,18.5,6   c4.4,4,6.6,9.2,6.4,15.6l-0.1,0.3h-10.8c0-3.8-1.2-6.9-3.6-9.3s-5.8-3.5-10.3-3.5c-4.7,0-8.5,1.8-11.4,5.3c-2.9,3.5-4.3,8-4.3,13.4   v14.3c0,5.5,1.5,10,4.5,13.5c3,3.5,6.9,5.3,11.8,5.3c3.6,0,6.5-0.4,8.6-1.2c2.1-0.8,3.7-1.8,4.8-3v-14.1h-14.3v-8.5h25.6V386.4z    M192.5,395.7h-11.4v-68h11.4V395.7z M254.1,336.7h-32.2v20.8h27.4v9.1h-27.4v29h-11.4v-68h43.6V336.7z"/></g></svg>